# xmcd
#
# Track frame offsets: 
#        180
#        16079
#        27874
#        39736
#        54012
#        65217
#        78920
#        88667
#        101879
#        115910
#
# Disc length: 1717 seconds
#
# Revision: 0
# Processed by: cddbd v1.5.2PL0 Copyright (c) Steve Scherf et al.
# Submitted via: ExactAudioCopy v0.95b4
#
DISCID=7806b30a
DTITLE=Joe Tex - David Allen Coe Presents Joe Tex
DYEAR=2002
DGENRE=Blues
TTITLE0=Ain't Gonna Bump No More (With No Big Fat Woman)
TTITLE1=A Sweet Woman Like You
TTITLE2=A Woman Can Change a Man
TTITLE3=Hold What You've Got
TTITLE4=I Gotcha
TTITLE5=I've Got to Do a Little Bit Better
TTITLE6=I Want to Do Everything For You
TTITLE7=Show Me
TTITLE8=Skinny Legs and All
TTITLE9=SYSLJFM (The Letter Song)
EXTD=
EXTT0=
EXTT1=
EXTT2=
EXTT3=
EXTT4=
EXTT5=
EXTT6=
EXTT7=
EXTT8=
EXTT9=
PLAYORDER=
